<svg width="124" height="32" viewBox="0 0 124 32" fill="none" xmlns="http://www.w3.org/2000/svg">
<path d="M115.661 18.4977H123.388V22.9999H109.562V18.6574L116.97 9.68501H109.626V5.18286H123.229V9.52536L115.661 18.4977Z" fill="black"/>
<path d="M99.8929 4.99121C101.979 4.99121 103.639 5.67239 104.874 7.03474C106.13 8.3758 106.758 10.2278 106.758 12.5906V22.9998H101.33V13.325C101.33 12.1329 101.021 11.2069 100.404 10.5471C99.7864 9.88716 98.9563 9.55722 97.9132 9.55722C96.8701 9.55722 96.04 9.88716 95.4227 10.5471C94.8053 11.2069 94.4967 12.1329 94.4967 13.325V22.9998H89.0366V5.18279H94.4967V7.54562C95.0501 6.75801 95.7952 6.14069 96.7318 5.69367C97.6684 5.22536 98.7221 4.99121 99.8929 4.99121Z" fill="black"/>
<path d="M66.2798 14.0595C66.2798 12.2289 66.6204 10.6217 67.3016 9.23806C68.004 7.85442 68.9513 6.79008 70.1433 6.04505C71.3354 5.30001 72.6658 4.92749 74.1346 4.92749C75.3905 4.92749 76.4868 5.18293 77.4234 5.69381C78.3813 6.2047 79.1157 6.87523 79.6266 7.70541V5.18293H85.0866V23H79.6266V20.4775C79.0944 21.3077 78.3494 21.9782 77.3915 22.4891C76.4549 23 75.3586 23.2554 74.1027 23.2554C72.6552 23.2554 71.3354 22.8829 70.1433 22.1378C68.9513 21.3715 68.004 20.2965 67.3016 18.9129C66.6204 17.508 66.2798 15.8902 66.2798 14.0595ZM79.6266 14.0914C79.6266 12.7291 79.2434 11.6541 78.4771 10.8665C77.7321 10.0789 76.8167 9.68508 75.7311 9.68508C74.6455 9.68508 73.7195 10.0789 72.9532 10.8665C72.2081 11.6328 71.8356 12.6972 71.8356 14.0595C71.8356 15.4219 72.2081 16.5075 72.9532 17.3164C73.7195 18.104 74.6455 18.4978 75.7311 18.4978C76.8167 18.4978 77.7321 18.104 78.4771 17.3164C79.2434 16.5288 79.6266 15.4538 79.6266 14.0914Z" fill="black"/>
<path d="M56.7063 4.99121C58.7925 4.99121 60.4528 5.67239 61.6875 7.03474C62.9434 8.3758 63.5713 10.2278 63.5713 12.5906V22.9998H58.1432V13.325C58.1432 12.1329 57.8345 11.2069 57.2172 10.5471C56.5999 9.88716 55.7697 9.55722 54.7267 9.55722C53.6836 9.55722 52.8534 9.88716 52.2361 10.5471C51.6188 11.2069 51.3102 12.1329 51.3102 13.325V22.9998H45.8501V5.18279H51.3102V7.54562C51.8636 6.75801 52.6086 6.14069 53.5453 5.69367C54.4819 5.22536 55.5356 4.99121 56.7063 4.99121Z" fill="black"/>
<path d="M23.0933 14.0595C23.0933 12.2289 23.4338 10.6217 24.115 9.23806C24.8175 7.85442 25.7647 6.79008 26.9568 6.04505C28.1489 5.30001 29.4793 4.92749 30.9481 4.92749C32.204 4.92749 33.3003 5.18293 34.2369 5.69381C35.1948 6.2047 35.9292 6.87523 36.4401 7.70541V5.18293H41.9001V23H36.4401V20.4775C35.9079 21.3077 35.1629 21.9782 34.205 22.4891C33.2683 23 32.1721 23.2554 30.9161 23.2554C29.4686 23.2554 28.1489 22.8829 26.9568 22.1378C25.7647 21.3715 24.8175 20.2965 24.115 18.9129C23.4338 17.508 23.0933 15.8902 23.0933 14.0595ZM36.4401 14.0914C36.4401 12.7291 36.0569 11.6541 35.2906 10.8665C34.5455 10.0789 33.6302 9.68508 32.5446 9.68508C31.459 9.68508 30.533 10.0789 29.7667 10.8665C29.0216 11.6328 28.6491 12.6972 28.6491 14.0595C28.6491 15.4219 29.0216 16.5075 29.7667 17.3164C30.533 18.104 31.459 18.4978 32.5446 18.4978C33.6302 18.4978 34.5455 18.104 35.2906 17.3164C36.0569 16.5288 36.4401 15.4538 36.4401 14.0914Z" fill="black"/>
<path d="M9.37712 0.584961C11.74 0.584961 13.8048 1.05327 15.5716 1.98989C17.3384 2.9265 18.7007 4.24628 19.6586 5.94922C20.6378 7.63088 21.1274 9.57862 21.1274 11.7924C21.1274 13.985 20.6378 15.9327 19.6586 17.6357C18.7007 19.3386 17.3277 20.6584 15.5396 21.595C13.7728 22.5316 11.7187 22.9999 9.37712 22.9999H0.979492V0.584961H9.37712ZM9.02589 18.2743C11.0907 18.2743 12.6979 17.7102 13.8473 16.582C14.9968 15.4538 15.5716 13.8573 15.5716 11.7924C15.5716 9.72762 14.9968 8.12047 13.8473 6.97099C12.6979 5.8215 11.0907 5.24676 9.02589 5.24676H6.43955V18.2743H9.02589Z" fill="black"/>
<path fill-rule="evenodd" clip-rule="evenodd" d="M54.6152 13C55.1675 13 55.6152 13.4477 55.6152 14V25.5H96.9999V14C96.9999 13.4477 97.4476 13 97.9999 13C98.5522 13 98.9999 13.4477 98.9999 14V27.5H53.6152V14C53.6152 13.4477 54.0629 13 54.6152 13Z" fill="black"/>
<path fill-rule="evenodd" clip-rule="evenodd" d="M58.8138 25.6993C58.3715 25.3685 57.7448 25.4588 57.414 25.9011L54.048 30.4011C53.7172 30.8433 53.8075 31.47 54.2498 31.8008C54.692 32.1316 55.3187 32.0413 55.6495 31.599L59.0155 27.099C59.3464 26.6568 59.256 26.0301 58.8138 25.6993Z" fill="black"/>
<path fill-rule="evenodd" clip-rule="evenodd" d="M93.7546 25.6993C94.1968 25.3685 94.8235 25.4588 95.1543 25.9011L98.5204 30.4011C98.8512 30.8433 98.7609 31.47 98.3186 31.8008C97.8764 32.1316 97.2497 32.0413 96.9189 31.599L93.5528 27.099C93.222 26.6568 93.3123 26.0301 93.7546 25.6993Z" fill="black"/>
</svg>
